<svg version="1.1" id="Layer_1" xmlns="http://www.w3.org/2000/svg" xmlns:xlink="http://www.w3.org/1999/xlink" x="0px" y="0px"
	 width="100%" viewBox="0 0 810 540" enable-background="new 0 0 810 540" xml:space="preserve">
<path fill="#FFFFFF" opacity="1.000000" stroke="none" 
	d="
M507.000000,541.000000 
	C338.000000,541.000000 169.500000,541.000000 1.000000,541.000000 
	C1.000000,361.000000 1.000000,181.000000 1.000000,1.000000 
	C271.000000,1.000000 541.000000,1.000000 811.000000,1.000000 
	C811.000000,181.000000 811.000000,361.000000 811.000000,541.000000 
	C709.833313,541.000000 608.666687,541.000000 507.000000,541.000000 
M183.999329,350.500000 
	C183.999329,398.586884 183.999329,446.673767 183.999329,494.693909 
	C331.994690,494.693909 479.376923,494.693909 626.694092,494.693909 
	C626.694092,344.005066 626.694092,193.623184 626.694092,43.306152 
	C479.005127,43.306152 331.622894,43.306152 183.999329,43.306152 
	C183.999329,145.575211 183.999329,247.537598 183.999329,350.500000 
z"/>
<path fill="#013399" opacity="1.000000" stroke="none" 
	d="
M183.999329,350.000000 
	C183.999329,247.537598 183.999329,145.575211 183.999329,43.306152 
	C331.622894,43.306152 479.005127,43.306152 626.694092,43.306152 
	C626.694092,193.623184 626.694092,344.005066 626.694092,494.693909 
	C479.376923,494.693909 331.994690,494.693909 183.999329,494.693909 
	C183.999329,446.673767 183.999329,398.586884 183.999329,350.000000 
M545.376526,384.202911 
	C549.847839,381.051453 554.460205,378.077545 558.736084,374.680145 
	C561.194702,372.726654 562.889832,372.948578 565.213806,374.782104 
	C569.495850,378.160492 574.017334,381.235413 579.409058,385.139099 
	C577.023560,377.632050 574.985535,371.218384 572.882141,364.599060 
	C578.380676,360.534821 583.812073,356.520142 590.187012,351.808075 
	C583.494934,351.808075 578.166992,351.596588 572.866394,351.886230 
	C569.611938,352.064056 568.126770,350.931274 567.266052,347.844360 
	C565.778992,342.511627 563.891418,337.290558 561.864380,331.080475 
	C559.726746,337.575134 557.788696,342.859406 556.290833,348.265625 
	C555.526611,351.023895 554.270325,351.977386 551.435669,351.869629 
	C545.902100,351.659210 540.354858,351.807892 533.509216,351.807892 
	C540.096130,356.621857 545.526123,360.590302 550.892883,364.512512 
	C548.795837,371.209930 546.816040,377.532776 544.735229,384.161133 
	C544.805969,384.156738 544.876648,384.152344 544.947388,384.147949 
	C544.876099,384.026825 544.804871,383.905701 545.376526,384.202911 
M267.095001,384.044830 
	C267.111694,383.981781 267.128387,383.918701 267.040558,383.099854 
	C265.067749,376.969971 263.094971,370.840088 261.084106,364.591888 
	C266.662964,360.494171 272.064819,356.526489 278.488708,351.808105 
	C271.794769,351.808105 266.362671,351.657074 260.944702,351.868561 
	C258.011475,351.983093 256.477600,351.217926 255.659927,348.155334 
	C254.225113,342.781158 252.261230,337.548248 250.128845,331.071228 
	C248.165451,337.082611 246.339066,341.993530 244.991043,347.032410 
	C244.034302,350.608795 242.452881,352.223846 238.479996,351.905640 
	C233.444809,351.502319 228.352844,351.808136 221.741409,351.808136 
	C227.509277,356.008881 231.920044,359.398560 236.525925,362.498322 
	C238.714539,363.971252 239.091904,365.317017 238.175781,367.804169 
	C236.186768,373.204010 234.608963,378.755310 232.546265,385.240601 
	C237.817123,381.411469 242.357620,378.406647 246.541901,374.968323 
	C249.262085,372.733124 251.131439,372.981964 253.850540,375.049591 
	C258.079437,378.265228 262.751678,380.897919 267.095001,384.044830 
M545.376526,204.202835 
	C549.848083,201.051178 554.461060,198.077393 558.736877,194.679398 
	C561.196716,192.724594 562.891846,192.950851 565.214905,194.783173 
	C569.497681,198.161148 574.019165,201.236435 579.408508,205.138168 
	C577.023315,197.631882 574.984863,191.216980 572.881470,184.597366 
	C578.383362,180.532379 583.815613,176.518829 590.191528,171.808090 
	C583.498230,171.808090 578.170044,171.597260 572.869080,171.886047 
	C569.616882,172.063232 568.127319,170.936752 567.266418,167.846497 
	C565.780457,162.513016 563.892151,157.291672 561.864746,151.079834 
	C559.726746,157.575287 557.788574,162.859436 556.290833,168.265610 
	C555.526489,171.024323 554.269897,171.977386 551.435242,171.869614 
	C545.901306,171.659241 540.353760,171.807907 533.508423,171.807907 
	C540.095276,176.621552 545.525757,180.590149 550.892822,184.512390 
	C548.796082,191.209122 546.816223,197.532394 544.735168,204.161194 
	C544.805908,204.156784 544.876709,204.152390 544.947449,204.147964 
	C544.876221,204.026840 544.804932,203.905731 545.376526,204.202835 
M267.094879,204.045090 
	C267.111481,203.982056 267.128052,203.919022 267.040527,203.100082 
	C265.067871,196.970306 263.095184,190.840546 261.084167,184.591721 
	C266.663361,180.494064 272.065277,176.526627 278.489807,171.808090 
	C271.793945,171.808090 266.362335,171.657074 260.944855,171.868546 
	C258.011871,171.983032 256.477692,171.218369 255.660034,168.155579 
	C254.225266,162.781311 252.261292,157.548294 250.128845,151.071060 
	C248.167160,157.077225 246.340134,161.990494 244.991180,167.031708 
	C244.034378,170.607376 242.454330,172.224045 238.480820,171.905685 
	C233.445679,171.502228 228.353699,171.808136 221.741638,171.808136 
	C227.509735,176.009109 231.920349,179.398819 236.526169,182.498444 
	C238.715012,183.971481 239.091675,185.317474 238.175690,187.804337 
	C236.186798,193.204163 234.608917,198.755371 232.546204,205.240692 
	C237.817108,201.411514 242.357544,198.406693 246.541824,194.968430 
	C249.261871,192.733353 251.131226,192.981628 253.850372,195.049423 
	C258.079163,198.265259 262.751373,200.898087 267.094879,204.045090 
M302.315094,438.796143 
	C301.184479,442.470398 300.053894,446.144684 298.555603,451.013855 
	C302.742371,447.987396 305.782440,445.707977 308.905151,443.548035 
	C317.847229,437.362701 314.248291,437.359009 322.967316,443.413971 
	C326.166138,445.635376 329.293335,447.959930 333.531128,451.014313 
	C331.076416,443.303680 329.037140,436.897949 326.986084,430.455170 
	C332.642853,426.295929 338.049225,422.320801 344.436157,417.624664 
	C337.758179,417.624664 332.320953,417.423187 326.908142,417.699524 
	C323.612427,417.867798 322.189606,416.598724 321.342041,413.550262 
	C319.902771,408.373657 318.078033,403.304230 315.998291,396.907135 
	C313.913544,403.318024 312.078735,408.390503 310.648132,413.574493 
	C309.798737,416.652222 308.333649,417.860809 305.062012,417.697845 
	C299.656860,417.428619 294.228546,417.624695 287.536682,417.624695 
	C294.097931,422.420654 299.633209,426.466644 305.053558,430.428650 
	C304.137756,433.335938 303.390686,435.707581 302.315094,438.796143 
M507.660278,417.624817 
	C503.776855,418.363770 502.051331,416.493652 501.093689,412.860382 
	C499.780792,407.879364 497.968384,403.030029 495.967896,396.890015 
	C493.966125,403.111359 492.206238,407.909119 490.911194,412.829224 
	C489.963318,416.430145 488.308685,418.006592 484.360748,417.717743 
	C479.181396,417.338776 473.953400,417.624756 467.541199,417.624756 
	C474.064911,422.396759 479.522552,426.388916 485.037292,430.422852 
	C482.921448,437.065765 480.886444,443.454895 478.436249,451.147583 
	C484.122742,447.001038 488.532898,443.490784 493.277130,440.512695 
	C494.625275,439.666443 497.394531,439.651642 498.739838,440.491882 
	C503.490967,443.459473 507.907166,446.963257 513.530579,451.048492 
	C511.107025,443.425781 509.072876,437.027954 506.978455,430.440521 
	C512.552490,426.360474 518.018555,422.359436 524.486511,417.625061 
	C518.211975,417.625061 513.418518,417.625061 507.660278,417.624817 
M327.587799,118.195023 
	C332.867920,114.345421 338.148071,110.495811 344.431641,105.914635 
	C337.505585,105.914635 331.885315,105.803574 326.272827,105.964645 
	C323.724518,106.037781 322.427032,105.339348 321.688751,102.701698 
	C320.148621,97.199387 318.178528,91.817436 316.000946,85.222542 
	C313.825775,91.807335 311.855469,97.186539 310.316101,102.686371 
	C309.579712,105.317375 308.310242,106.044327 305.741638,105.966835 
	C300.142609,105.797905 294.534943,105.914635 287.633118,105.914635 
	C294.066528,110.615280 299.479065,114.570007 305.030060,118.625923 
	C302.939911,125.198715 300.898865,131.617126 298.479645,139.224716 
	C303.129974,135.914459 307.132507,133.733765 310.270966,130.668411 
	C314.553955,126.485123 317.904907,127.074646 322.001251,130.817017 
	C325.154297,133.697586 328.937683,135.888214 333.388031,139.060959 
	C331.065857,131.454681 329.138702,125.142342 327.587799,118.195023 
M477.567566,105.914803 
	C474.665741,105.914803 471.763916,105.914803 467.639465,105.914803 
	C474.132782,110.669441 479.556183,114.640656 485.030029,118.648811 
	C482.922333,125.279327 480.892609,131.664536 478.468658,139.289963 
	C484.144501,135.200546 488.803802,132.039459 493.223572,128.573013 
	C495.305237,126.940361 496.758301,126.933357 498.828400,128.547684 
	C503.257263,132.001480 507.891663,135.191605 513.523254,139.273499 
	C511.101379,131.641296 509.069183,125.237000 506.987854,118.677834 
	C512.522034,114.622429 517.943787,110.649406 524.405029,105.914688 
	C517.623474,105.914688 512.050964,105.767746 506.491791,105.976463 
	C503.697449,106.081383 502.365540,105.236832 501.588409,102.447182 
	C500.071747,97.002953 498.114532,91.681450 495.963226,85.169525 
	C494.535645,89.569771 493.529205,92.688896 492.511902,95.804466 
	C489.210449,105.915314 489.208893,105.914810 477.567566,105.914803 
M206.341980,268.141083 
	C209.245987,270.298431 212.149979,272.455780 215.009735,274.580261 
	C212.891983,281.258698 210.883179,287.593628 208.473694,295.192139 
	C213.937057,291.236389 218.395615,288.339966 222.448868,284.957825 
	C225.191086,282.669647 227.089539,282.900238 229.728867,285.065979 
	C233.795151,288.402649 238.216461,291.306641 243.543854,295.158142 
	C241.110428,287.523315 239.067001,281.112122 236.982544,274.572174 
	C242.541138,270.497650 247.948959,266.533661 254.394547,261.808990 
	C247.661591,261.808990 242.227310,261.652039 236.808289,261.871521 
	C233.853668,261.991211 232.331696,261.188416 231.513947,258.141479 
	C230.077240,252.788528 228.134521,247.571381 226.010056,241.097672 
	C223.823563,247.705185 221.863953,253.075592 220.310989,258.561096 
	C219.573792,261.165131 218.312744,261.937744 215.736389,261.860443 
	C210.155243,261.692963 204.565582,261.808807 197.708832,261.808807 
	C201.065048,264.301941 203.398956,266.035645 206.341980,268.141083 
M570.737549,288.094391 
	C570.095581,290.043793 569.453552,291.993225 568.376099,295.265015 
	C573.993713,291.192902 578.517517,288.131989 582.777283,284.739624 
	C585.132874,282.863647 586.818909,282.745239 589.237305,284.704590 
	C593.461365,288.126984 598.007202,291.152252 603.588745,295.190948 
	C601.066772,287.345428 599.049133,281.068939 596.964172,274.582825 
	C602.466187,270.556183 607.891785,266.585449 614.418518,261.808868 
	C607.567017,261.808868 602.000488,261.651123 596.449280,261.874207 
	C593.595337,261.988892 592.353699,260.989136 591.579346,258.271942 
	C590.035156,252.853317 588.097046,247.546936 585.968079,241.128235 
	C584.100159,246.776871 582.125916,251.071121 581.332703,255.573441 
	C580.359192,261.099396 577.466797,262.380524 572.396179,261.897980 
	C567.929260,261.472870 563.389893,261.809052 557.641724,261.809052 
	C564.271301,266.659637 569.702698,270.633545 575.062317,274.554962 
	C573.587708,279.136444 572.268860,283.233734 570.737549,288.094391 
M431.481567,441.811371 
	C426.493042,441.810547 421.498108,441.658325 416.518463,441.868164 
	C413.728394,441.985748 412.379486,441.123810 411.598999,438.337189 
	C410.075714,432.898315 408.122742,427.579803 405.975952,421.087250 
	C403.809692,427.690216 401.880829,432.960999 400.393219,438.353546 
	C399.617340,441.166046 398.230896,441.965820 395.461609,441.867065 
	C389.950226,441.670532 384.426880,441.808899 377.650055,441.808899 
	C384.247223,446.640442 389.674133,450.614929 395.020721,454.530579 
	C392.886505,461.284058 390.890106,467.601501 388.509521,475.134552 
	C393.157349,471.799255 397.004211,469.662933 400.051392,466.703247 
	C404.425934,462.454376 407.957794,462.923737 412.187195,466.836823 
	C415.290192,469.707733 419.030518,471.889771 423.535889,475.134369 
	C421.103912,467.500275 419.062958,461.093689 416.977966,454.548767 
	C422.100220,450.821625 427.074463,447.233521 431.984863,443.560089 
	C432.317993,443.310883 432.171356,442.420288 431.481567,441.811371 
M432.610138,83.128700 
	C432.783356,82.897736 432.989288,82.682709 433.113495,82.427872 
	C433.162445,82.327454 433.030945,82.008499 432.978394,82.007736 
	C427.495819,81.927940 422.008667,81.717918 416.531799,81.872078 
	C413.756256,81.950195 412.384491,81.148911 411.602295,78.348480 
	C410.082092,72.905655 408.125153,67.584808 405.976715,61.087074 
	C403.810638,67.688728 401.881378,72.959778 400.393616,78.352608 
	C399.617462,81.165886 398.230621,81.965965 395.460449,81.867119 
	C389.948639,81.670441 384.424896,81.808899 377.645844,81.808899 
	C384.250122,86.643784 389.679016,90.618195 395.022583,94.530121 
	C392.884308,101.289673 390.888062,107.600288 388.486267,115.192932 
	C393.848755,111.303993 398.126923,108.450714 402.106659,105.228813 
	C404.823700,103.029175 406.875214,102.599564 409.792450,105.086090 
	C413.771332,108.477562 418.227692,111.308853 423.534485,115.142548 
	C421.095764,107.475578 419.057495,101.067657 416.981720,94.541763 
	C422.130371,90.798149 427.093201,87.189674 432.610138,83.128700 
z"/>
<path fill="#FAC903" opacity="1.000000" stroke="none" 
	d="
M302.479370,438.437683 
	C303.390686,435.707581 304.137756,433.335938 305.053558,430.428650 
	C299.633209,426.466644 294.097931,422.420654 287.536682,417.624695 
	C294.228546,417.624695 299.656860,417.428619 305.062012,417.697845 
	C308.333649,417.860809 309.798737,416.652222 310.648132,413.574493 
	C312.078735,408.390503 313.913544,403.318024 315.998291,396.907135 
	C318.078033,403.304230 319.902771,408.373657 321.342041,413.550262 
	C322.189606,416.598724 323.612427,417.867798 326.908142,417.699524 
	C332.320953,417.423187 337.758179,417.624664 344.436157,417.624664 
	C338.049225,422.320801 332.642853,426.295929 326.986084,430.455170 
	C329.037140,436.897949 331.076416,443.303680 333.531128,451.014313 
	C329.293335,447.959930 326.166138,445.635376 322.967316,443.413971 
	C314.248291,437.359009 317.847229,437.362701 308.905151,443.548035 
	C305.782440,445.707977 302.742371,447.987396 298.555603,451.013855 
	C300.053894,446.144684 301.184479,442.470398 302.479370,438.437683 
z"/>
<path fill="#FAC903" opacity="1.000000" stroke="none" 
	d="
M508.142700,417.624939 
	C513.418518,417.625061 518.211975,417.625061 524.486511,417.625061 
	C518.018555,422.359436 512.552490,426.360474 506.978455,430.440521 
	C509.072876,437.027954 511.107025,443.425781 513.530579,451.048492 
	C507.907166,446.963257 503.490967,443.459473 498.739838,440.491882 
	C497.394531,439.651642 494.625275,439.666443 493.277130,440.512695 
	C488.532898,443.490784 484.122742,447.001038 478.436249,451.147583 
	C480.886444,443.454895 482.921448,437.065765 485.037292,430.422852 
	C479.522552,426.388916 474.064911,422.396759 467.541199,417.624756 
	C473.953400,417.624756 479.181396,417.338776 484.360748,417.717743 
	C488.308685,418.006592 489.963318,416.430145 490.911194,412.829224 
	C492.206238,407.909119 493.966125,403.111359 495.967896,396.890015 
	C497.968384,403.030029 499.780792,407.879364 501.093689,412.860382 
	C502.051331,416.493652 503.776855,418.363770 508.142700,417.624939 
z"/>
<path fill="#FAC903" opacity="1.000000" stroke="none" 
	d="
M327.399658,118.512512 
	C329.138702,125.142342 331.065857,131.454681 333.388031,139.060959 
	C328.937683,135.888214 325.154297,133.697586 322.001251,130.817017 
	C317.904907,127.074646 314.553955,126.485123 310.270966,130.668411 
	C307.132507,133.733765 303.129974,135.914459 298.479645,139.224716 
	C300.898865,131.617126 302.939911,125.198715 305.030060,118.625923 
	C299.479065,114.570007 294.066528,110.615280 287.633118,105.914635 
	C294.534943,105.914635 300.142609,105.797905 305.741638,105.966835 
	C308.310242,106.044327 309.579712,105.317375 310.316101,102.686371 
	C311.855469,97.186539 313.825775,91.807335 316.000946,85.222542 
	C318.178528,91.817436 320.148621,97.199387 321.688751,102.701698 
	C322.427032,105.339348 323.724518,106.037781 326.272827,105.964645 
	C331.885315,105.803574 337.505585,105.914635 344.431641,105.914635 
	C338.148071,110.495811 332.867920,114.345421 327.399658,118.512512 
z"/>
<path fill="#FAC903" opacity="1.000000" stroke="none" 
	d="
M478.046326,105.914795 
	C489.208893,105.914810 489.210449,105.915314 492.511902,95.804466 
	C493.529205,92.688896 494.535645,89.569771 495.963226,85.169525 
	C498.114532,91.681450 500.071747,97.002953 501.588409,102.447182 
	C502.365540,105.236832 503.697449,106.081383 506.491791,105.976463 
	C512.050964,105.767746 517.623474,105.914688 524.405029,105.914688 
	C517.943787,110.649406 512.522034,114.622429 506.987854,118.677834 
	C509.069183,125.237000 511.101379,131.641296 513.523254,139.273499 
	C507.891663,135.191605 503.257263,132.001480 498.828400,128.547684 
	C496.758301,126.933357 495.305237,126.940361 493.223572,128.573013 
	C488.803802,132.039459 484.144501,135.200546 478.468658,139.289963 
	C480.892609,131.664536 482.922333,125.279327 485.030029,118.648811 
	C479.556183,114.640656 474.132782,110.669441 467.639465,105.914803 
	C471.763916,105.914803 474.665741,105.914803 478.046326,105.914795 
z"/>
<path fill="#FAC903" opacity="1.000000" stroke="none" 
	d="
M206.037415,267.955200 
	C203.398956,266.035645 201.065048,264.301941 197.708832,261.808807 
	C204.565582,261.808807 210.155243,261.692963 215.736389,261.860443 
	C218.312744,261.937744 219.573792,261.165131 220.310989,258.561096 
	C221.863953,253.075592 223.823563,247.705185 226.010056,241.097672 
	C228.134521,247.571381 230.077240,252.788528 231.513947,258.141479 
	C232.331696,261.188416 233.853668,261.991211 236.808289,261.871521 
	C242.227310,261.652039 247.661591,261.808990 254.394547,261.808990 
	C247.948959,266.533661 242.541138,270.497650 236.982544,274.572174 
	C239.067001,281.112122 241.110428,287.523315 243.543854,295.158142 
	C238.216461,291.306641 233.795151,288.402649 229.728867,285.065979 
	C227.089539,282.900238 225.191086,282.669647 222.448868,284.957825 
	C218.395615,288.339966 213.937057,291.236389 208.473694,295.192139 
	C210.883179,287.593628 212.891983,281.258698 215.009735,274.580261 
	C212.149979,272.455780 209.245987,270.298431 206.037415,267.955200 
z"/>
<path fill="#FAC903" opacity="1.000000" stroke="none" 
	d="
M570.843811,287.712708 
	C572.268860,283.233734 573.587708,279.136444 575.062317,274.554962 
	C569.702698,270.633545 564.271301,266.659637 557.641724,261.809052 
	C563.389893,261.809052 567.929260,261.472870 572.396179,261.897980 
	C577.466797,262.380524 580.359192,261.099396 581.332703,255.573441 
	C582.125916,251.071121 584.100159,246.776871 585.968079,241.128235 
	C588.097046,247.546936 590.035156,252.853317 591.579346,258.271942 
	C592.353699,260.989136 593.595337,261.988892 596.449280,261.874207 
	C602.000488,261.651123 607.567017,261.808868 614.418518,261.808868 
	C607.891785,266.585449 602.466187,270.556183 596.964172,274.582825 
	C599.049133,281.068939 601.066772,287.345428 603.588745,295.190948 
	C598.007202,291.152252 593.461365,288.126984 589.237305,284.704590 
	C586.818909,282.745239 585.132874,282.863647 582.777283,284.739624 
	C578.517517,288.131989 573.993713,291.192902 568.376099,295.265015 
	C569.453552,291.993225 570.095581,290.043793 570.843811,287.712708 
z"/>
<path fill="#FAC903" opacity="1.000000" stroke="none" 
	d="
M431.864716,441.819702 
	C432.171356,442.420288 432.317993,443.310883 431.984863,443.560089 
	C427.074463,447.233521 422.100220,450.821625 416.977966,454.548767 
	C419.062958,461.093689 421.103912,467.500275 423.535889,475.134369 
	C419.030518,471.889771 415.290192,469.707733 412.187195,466.836823 
	C407.957794,462.923737 404.425934,462.454376 400.051392,466.703247 
	C397.004211,469.662933 393.157349,471.799255 388.509521,475.134552 
	C390.890106,467.601501 392.886505,461.284058 395.020721,454.530579 
	C389.674133,450.614929 384.247223,446.640442 377.650055,441.808899 
	C384.426880,441.808899 389.950226,441.670532 395.461609,441.867065 
	C398.230896,441.965820 399.617340,441.166046 400.393219,438.353546 
	C401.880829,432.960999 403.809692,427.690216 405.975952,421.087250 
	C408.122742,427.579803 410.075714,432.898315 411.598999,438.337189 
	C412.379486,441.123810 413.728394,441.985748 416.518463,441.868164 
	C421.498108,441.658325 426.493042,441.810547 431.864716,441.819702 
z"/>
<path fill="#FAC903" opacity="1.000000" stroke="none" 
	d="
M432.333069,83.354950 
	C427.093201,87.189674 422.130371,90.798149 416.981720,94.541763 
	C419.057495,101.067657 421.095764,107.475578 423.534485,115.142548 
	C418.227692,111.308853 413.771332,108.477562 409.792450,105.086090 
	C406.875214,102.599564 404.823700,103.029175 402.106659,105.228813 
	C398.126923,108.450714 393.848755,111.303993 388.486267,115.192932 
	C390.888062,107.600288 392.884308,101.289673 395.022583,94.530121 
	C389.679016,90.618195 384.250122,86.643784 377.645844,81.808899 
	C384.424896,81.808899 389.948639,81.670441 395.460449,81.867119 
	C398.230621,81.965965 399.617462,81.165886 400.393616,78.352608 
	C401.881378,72.959778 403.810638,67.688728 405.976715,61.087074 
	C408.125153,67.584808 410.082092,72.905655 411.602295,78.348480 
	C412.384491,81.148911 413.756256,81.950195 416.531799,81.872078 
	C422.008667,81.717918 427.495819,81.927940 432.978394,82.007736 
	C433.030945,82.008499 433.162445,82.327454 433.113495,82.427872 
	C432.989288,82.682709 432.783356,82.897736 432.333069,83.354950 
z"/>
<path fill="#F9C903" opacity="1.000000" stroke="none" 
	d="
M267.235626,203.778015 
	C262.751373,200.898087 258.079163,198.265259 253.850372,195.049423 
	C251.131226,192.981628 249.261871,192.733353 246.541824,194.968430 
	C242.357544,198.406693 237.817108,201.411514 232.546204,205.240692 
	C234.608917,198.755371 236.186798,193.204163 238.175690,187.804337 
	C239.091675,185.317474 238.715012,183.971481 236.526169,182.498444 
	C231.920349,179.398819 227.509735,176.009109 221.741638,171.808136 
	C228.353699,171.808136 233.445679,171.502228 238.480820,171.905685 
	C242.454330,172.224045 244.034378,170.607376 244.991180,167.031708 
	C246.340134,161.990494 248.167160,157.077225 250.128845,151.071060 
	C252.261292,157.548294 254.225266,162.781311 255.660034,168.155579 
	C256.477692,171.218369 258.011871,171.983032 260.944855,171.868546 
	C266.362335,171.657074 271.793945,171.808090 278.489807,171.808090 
	C272.065277,176.526627 266.663361,180.494064 261.084167,184.591721 
	C263.095184,190.840546 265.067871,196.970306 267.115845,203.459137 
	C267.191162,203.818192 267.235626,203.778015 267.235626,203.778015 
z"/>
<path fill="#F9C903" opacity="1.000000" stroke="none" 
	d="
M544.836365,203.855667 
	C546.816223,197.532394 548.796082,191.209122 550.892822,184.512390 
	C545.525757,180.590149 540.095276,176.621552 533.508423,171.807907 
	C540.353760,171.807907 545.901306,171.659241 551.435242,171.869614 
	C554.269897,171.977386 555.526489,171.024323 556.290833,168.265610 
	C557.788574,162.859436 559.726746,157.575287 561.864746,151.079834 
	C563.892151,157.291672 565.780457,162.513016 567.266418,167.846497 
	C568.127319,170.936752 569.616882,172.063232 572.869080,171.886047 
	C578.170044,171.597260 583.498230,171.808090 590.191528,171.808090 
	C583.815613,176.518829 578.383362,180.532379 572.881470,184.597366 
	C574.984863,191.216980 577.023315,197.631882 579.408508,205.138168 
	C574.019165,201.236435 569.497681,198.161148 565.214905,194.783173 
	C562.891846,192.950851 561.196716,192.724594 558.736877,194.679398 
	C554.461060,198.077393 549.848083,201.051178 545.080566,204.011841 
	C544.784546,203.820831 544.836365,203.855667 544.836365,203.855667 
z"/>
<path fill="#F9C903" opacity="1.000000" stroke="none" 
	d="
M267.235992,383.777679 
	C262.751678,380.897919 258.079437,378.265228 253.850540,375.049591 
	C251.131439,372.981964 249.262085,372.733124 246.541901,374.968323 
	C242.357620,378.406647 237.817123,381.411469 232.546265,385.240601 
	C234.608963,378.755310 236.186768,373.204010 238.175781,367.804169 
	C239.091904,365.317017 238.714539,363.971252 236.525925,362.498322 
	C231.920044,359.398560 227.509277,356.008881 221.741409,351.808136 
	C228.352844,351.808136 233.444809,351.502319 238.479996,351.905640 
	C242.452881,352.223846 244.034302,350.608795 244.991043,347.032410 
	C246.339066,341.993530 248.165451,337.082611 250.128845,331.071228 
	C252.261230,337.548248 254.225113,342.781158 255.659927,348.155334 
	C256.477600,351.217926 258.011475,351.983093 260.944702,351.868561 
	C266.362671,351.657074 271.794769,351.808105 278.488708,351.808105 
	C272.064819,356.526489 266.662964,360.494171 261.084106,364.591888 
	C263.094971,370.840088 265.067749,376.969971 267.116028,383.458801 
	C267.191528,383.817780 267.235992,383.777679 267.235992,383.777679 
z"/>
<path fill="#F9C903" opacity="1.000000" stroke="none" 
	d="
M544.836304,383.855591 
	C546.816040,377.532776 548.795837,371.209930 550.892883,364.512512 
	C545.526123,360.590302 540.096130,356.621857 533.509216,351.807892 
	C540.354858,351.807892 545.902100,351.659210 551.435669,351.869629 
	C554.270325,351.977386 555.526611,351.023895 556.290833,348.265625 
	C557.788696,342.859406 559.726746,337.575134 561.864380,331.080475 
	C563.891418,337.290558 565.778992,342.511627 567.266052,347.844360 
	C568.126770,350.931274 569.611938,352.064056 572.866394,351.886230 
	C578.166992,351.596588 583.494934,351.808075 590.187012,351.808075 
	C583.812073,356.520142 578.380676,360.534821 572.882141,364.599060 
	C574.985535,371.218384 577.023560,377.632050 579.409058,385.139099 
	C574.017334,381.235413 569.495850,378.160492 565.213806,374.782104 
	C562.889832,372.948578 561.194702,372.726654 558.736084,374.680145 
	C554.460205,378.077545 549.847839,381.051453 545.080566,384.011841 
	C544.784546,383.820740 544.836304,383.855591 544.836304,383.855591 
z"/>
<path fill="#F9C903" opacity="1.000000" stroke="none" 
	d="
M267.167908,203.837097 
	C267.128052,203.919022 267.111481,203.982056 267.165253,203.911560 
	C267.235626,203.778015 267.191162,203.818192 267.167908,203.837097 
z"/>
<path fill="#F9C903" opacity="1.000000" stroke="none" 
	d="
M544.759094,203.802719 
	C544.804932,203.905731 544.876221,204.026840 544.947449,204.147980 
	C544.876709,204.152390 544.805908,204.156784 544.785767,204.008423 
	C544.836365,203.855667 544.784546,203.820831 544.759094,203.802719 
z"/>
<path fill="#F9C903" opacity="1.000000" stroke="none" 
	d="
M267.168304,383.836731 
	C267.128387,383.918701 267.111694,383.981781 267.165497,383.911255 
	C267.235992,383.777679 267.191528,383.817780 267.168304,383.836731 
z"/>
<path fill="#F9C903" opacity="1.000000" stroke="none" 
	d="
M544.759094,383.802643 
	C544.804871,383.905701 544.876099,384.026825 544.947388,384.147949 
	C544.876648,384.152344 544.805969,384.156738 544.785767,384.008362 
	C544.836304,383.855591 544.784546,383.820740 544.759094,383.802643 
z"/>
</svg>